<?xml version="1.0" encoding="UTF-8" standalone="no"?>
<!-- Created with Inkscape (http://www.inkscape.org/) -->

<svg
   version="1.1"
   id="svg60"
   xml:space="preserve"
   width="583.32318"
   height="495.43954"
   viewBox="0 0 583.32317 495.43954"
   xmlns="http://www.w3.org/2000/svg"
   xmlns:svg="http://www.w3.org/2000/svg"><defs
     id="defs64"><clipPath
       clipPathUnits="userSpaceOnUse"
       id="clipPath76"><path
         d="M 0,2000 H 2000 V 0 H 0 Z"
         id="path74" /></clipPath></defs><g
     id="g66"
     transform="matrix(1.3333333,0,0,-1.3333333,-1027.489,1240.3749)"><g
       id="g70"
       transform="translate(-32.3111,-108.39529)"><g
         id="g72"
         clip-path="url(#clipPath76)"
         transform="translate(20.749249,-35.870527)"><g
           id="g78"
           transform="translate(1003.3926,908.2334)"
           style="fill:#ffffff;fill-opacity:1"><path
             d="m 0,0 c 8.293,0 24.95,-5.465 35.419,-45.47 2.593,-9.911 7.785,-16.937 15.431,-20.884 10.983,-5.668 24.465,-3.567 33.555,5.226 10.345,10.009 10.907,30.134 10.241,46.549 C 93.863,4.753 87.732,17.76 76.423,24.081 56.346,35.301 31.427,34.413 7.329,33.547 0.111,33.289 -6.708,33.045 -13.397,33.116 c -31.323,0.333 -60.053,2.095 -87.835,5.387 -27.862,3.301 -57.504,7.792 -85.497,18.218 l -0.452,0.168 c -8.029,2.988 -20.724,7.712 -28.13,15.496 V 3.067 c 0.791,-1.739 4.157,-8.221 11.131,-10.175 7.2,-2.017 16.205,1.122 26.771,9.327 6.817,5.295 11.911,7.01 16.03,5.392 6.131,-2.404 7.577,-11.203 9.251,-21.39 2.45,-14.913 5.229,-31.815 21.586,-33.633 21.617,-2.415 33.742,17.909 43.495,34.227 6.34,10.606 11.348,18.985 18.105,19.789 9.072,1.086 12.653,-8.159 16.118,-17.092 4.118,-10.622 7.374,-17.554 14.746,-17.296 9.726,0.353 15.514,8.063 21.111,15.519 4.202,5.598 8.172,10.886 13.632,11.953 C -2.489,-0.146 -1.356,0 0,0 m 63.88,-75.415 c -5.375,0 -10.767,1.249 -15.737,3.814 -9.198,4.748 -15.401,13.037 -18.437,24.637 -10.878,41.572 -27.168,41.785 -31.908,40.859 -3.234,-0.633 -6.541,-5.039 -10.044,-9.704 -5.825,-7.761 -13.075,-17.419 -25.617,-17.875 -12.106,-0.433 -16.75,11.481 -20.466,21.061 -3.356,8.65 -5.688,13.878 -9.914,13.365 -3.877,-0.461 -8.89,-8.847 -13.736,-16.956 -9.493,-15.881 -22.298,-37.299 -45.027,-37.301 -1.36,0 -2.755,0.077 -4.189,0.236 -20.805,2.312 -24.245,23.252 -26.758,38.543 -1.266,7.705 -2.576,15.672 -5.581,16.851 -1.091,0.428 -3.865,0.404 -10.254,-4.558 -12.16,-9.445 -22.948,-12.919 -32.062,-10.328 -10.928,3.106 -15.009,13.757 -15.178,14.208 -0.122,0.331 -0.186,0.68 -0.186,1.032 v 84.64 c 0,0.327 0.053,0.642 0.152,0.937 2.538,17.8 36.446,29.366 65.067,36.011 40.796,9.472 94.99,14.689 152.602,14.689 57.613,0 111.807,-5.217 152.603,-14.688 29.753,-6.909 65.219,-19.135 65.219,-38.153 0,-21.76 -47.354,-34.656 -75.58,-40.407 -1.59,-0.322 -3.157,0.705 -3.482,2.303 -0.326,1.598 0.706,3.157 2.303,3.482 44.367,9.039 70.855,21.982 70.855,34.622 0,22.668 -85.154,46.937 -211.918,46.937 -126.763,0 -211.918,-24.27 -211.918,-46.938 0,-12.248 20.389,-19.836 30.188,-23.482 l 0.453,-0.169 c 27.412,-10.209 56.636,-14.63 84.132,-17.888 27.57,-3.266 56.095,-5.015 87.202,-5.345 6.561,-0.077 13.308,0.171 20.453,0.427 24.911,0.889 50.669,1.814 72.186,-10.213 13.038,-7.287 20.383,-22.355 21.242,-43.574 0.716,-17.644 -0.006,-39.391 -12.034,-51.03 -6.813,-6.592 -15.698,-10.044 -24.631,-10.045"
             style="fill:#ffffff;fill-opacity:1;fill-rule:nonzero;stroke:none"
             id="path80" /></g><g
           id="g82"
           transform="translate(802.0781,839.1562)"
           style="stroke:#000000;stroke-width:3.69975;stroke-miterlimit:4;stroke-dasharray:none;stroke-opacity:0"><path
             d="m 0,0 c -0.583,0 -1.136,-0.043 -1.648,-0.127 -3.64,-0.598 -6.543,-2.946 -7.963,-6.442 -1.478,-3.633 -0.983,-7.666 1.322,-10.79 C -2.674,-24.969 8.113,-35.316 28.6,-44.98 27.777,-26.529 22.333,-15.825 17.462,-9.868 11.775,-2.914 4.801,0 0,0 m 13.352,-134.339 c -0.348,0 -0.703,0.061 -1.047,0.192 -1.525,0.578 -2.291,2.282 -1.714,3.807 13.146,34.658 17.831,60.135 18.102,78.768 -22.842,10.312 -35.143,21.777 -41.733,30.707 -3.535,4.792 -4.298,10.967 -2.041,16.519 2.181,5.365 6.845,9.12 12.476,10.044 6.577,1.081 16.733,-2.162 24.638,-11.829 5.634,-6.89 12.033,-19.515 12.452,-41.488 3.212,-1.369 6.635,-2.718 10.282,-4.036 37.529,-13.568 89.057,-20.447 153.155,-20.447 102.737,0 154.993,18.014 180.738,33.126 25.785,15.135 30.635,30.367 31.18,32.395 v 161.563 c 0,1.631 1.321,2.952 2.951,2.952 1.631,0 2.952,-1.321 2.952,-2.952 V -6.929 c 0,-0.186 -0.017,-0.371 -0.053,-0.554 -0.143,-0.749 -3.84,-18.533 -33.127,-36.042 -38.268,-22.88 -100.39,-34.481 -184.641,-34.481 -80.436,0 -131.32,10.738 -163.484,23.958 -0.614,-19.181 -5.54,-44.676 -18.326,-78.386 -0.447,-1.18 -1.57,-1.905 -2.76,-1.905"
             style="fill:#ffffff;fill-opacity:1;fill-rule:nonzero;stroke:#000000;stroke-width:3.69975;stroke-miterlimit:4;stroke-dasharray:none;stroke-opacity:0"
             id="path84" /></g><g
           id="g86"
           transform="translate(1009.5107,1022.4883)"
           style="fill:#ffffff;fill-opacity:1"><path
             d="m 0,0 c -13.306,0 -24.131,-10.825 -24.131,-24.13 0,-13.306 10.825,-24.13 24.131,-24.13 13.305,0 24.129,10.824 24.129,24.13 C 24.129,-10.825 13.305,0 0,0 m 0,-54.164 c -16.561,0 -30.034,13.474 -30.034,30.034 0,16.561 13.473,30.034 30.034,30.034 16.561,0 30.032,-13.473 30.032,-30.034 0,-16.56 -13.471,-30.034 -30.032,-30.034"
             style="fill:#ffffff;fill-opacity:1;fill-rule:nonzero;stroke:none"
             id="path88" /></g><g
           id="g90"
           transform="translate(1009.5137,995.4067)"
           style="fill:#ffffff;fill-opacity:1"><path
             d="m 0,0 c -0.107,0 -0.214,0.006 -0.322,0.018 -1.62,0.176 -2.791,1.631 -2.616,3.251 0.073,0.674 1.882,16.709 10.025,34.118 10.929,23.362 28.104,37.782 49.673,41.704 1.6,0.296 3.141,-0.772 3.432,-2.376 C 60.484,75.111 59.42,73.574 57.816,73.283 10.257,64.636 2.999,3.251 2.932,2.632 2.766,1.12 1.486,0 0,0"
             style="fill:#ffffff;fill-opacity:1;fill-rule:nonzero;stroke:none"
             id="path92" /></g></g></g></g></svg>
