<?xml version="1.0" encoding="UTF-8" standalone="no"?>
<!-- Created with Inkscape (http://www.inkscape.org/) -->

<svg
   version="1.1"
   id="svg2"
   xml:space="preserve"
   width="2666.6667"
   height="551.31866"
   viewBox="0 0 2666.6667 551.31866"
   xmlns="http://www.w3.org/2000/svg"
   xmlns:svg="http://www.w3.org/2000/svg"><defs
     id="defs6"><clipPath
       clipPathUnits="userSpaceOnUse"
       id="clipPath26"><path
         d="M 0,413.489 H 2000 V 0 H 0 Z"
         id="path24" /></clipPath></defs><g
     id="g8"
     transform="matrix(1.3333333,0,0,-1.3333333,0,551.31867)"><path
       d="M 0,0 H 2000 V 413.49 H 0 Z"
       style="fill:#fff5f6;fill-opacity:1;fill-rule:nonzero;stroke:none;opacity:0"
       id="path10" /><g
       id="g12"
       transform="translate(561.2715,269.5177)"><path
         d="M 0,0 H 7.569 L 8.309,-2.954 31.387,-108.93 71.266,-2.4 72.189,0 h 5.169 L 78.282,-2.4 118.16,-108.93 141.239,-2.954 141.978,0 h 7.57 l -0.924,-4.431 -25.849,-118.161 -0.737,-2.954 h -5.539 l -0.923,2.4 -40.802,108.929 -40.803,-108.929 -0.923,-2.4 h -5.539 l -0.738,2.954 L 0.924,-4.431 Z"
         style="fill:#ffffff;fill-opacity:1;fill-rule:nonzero;stroke:#ffffff;stroke-opacity:1;stroke-width:0.99975002;stroke-miterlimit:4;stroke-dasharray:none"
         id="path14" /></g><g
       id="g16"
       transform="translate(868.6729,269.5177)"><path
         d="M 0,0 V -7.386 H -3.693 -81.235 V -59.08 h 55.756 3.693 v -7.386 h -3.693 -55.756 V -118.16 H -3.693 0 v -7.386 h -3.693 -81.236 -3.692 v 3.692 55.388 7.386 V -3.692 0 h 3.692 l 81.236,0 z"
         style="fill:#ffffff;fill-opacity:1;fill-rule:nonzero;stroke:#ffffff;stroke-opacity:1;stroke-width:0.99975002;stroke-miterlimit:4;stroke-dasharray:none"
         id="path18" /></g><g
       id="g20"><g
         id="g22"
         clip-path="url(#clipPath26)"><g
           id="g28"
           transform="translate(994.0332,151.3575)"><path
             d="m 0,0 c 11.568,1.107 21.354,6.522 29.355,16.246 8.863,11.078 12.676,24.123 11.448,39.141 v 0.369 C 41.91,69.54 38.647,81.789 31.017,92.497 23.015,103.574 12.676,109.667 0,110.774 H -40.433 V 0 Z m -47.818,-7.386 v 3.693 118.161 3.692 h 3.692 44.495 0.185 C 14.337,116.804 25.908,110.466 35.263,99.144 45.355,86.71 49.664,72.124 48.187,55.387 49.54,39.262 45.418,24.924 35.817,12.369 26.463,0.43 14.707,-6.156 0.554,-7.386 H 0.369 0.185 -44.126 Z"
             style="fill:#ffffff;fill-opacity:1;fill-rule:nonzero;stroke:#ffffff;stroke-opacity:1;stroke-width:0.99975002;stroke-miterlimit:4;stroke-dasharray:none"
             id="path30" /></g><g
           id="g32"
           transform="translate(1167.5811,151.3575)"><path
             d="m 0,0 c 11.568,1.107 21.354,6.522 29.355,16.246 8.862,11.078 12.676,24.123 11.447,39.141 v 0.369 C 41.91,69.54 38.647,81.789 31.017,92.497 23.015,103.574 12.676,109.667 0,110.774 H -40.433 V 0 Z m -47.818,-7.386 v 3.693 118.161 3.692 h 3.692 44.495 0.185 C 14.337,116.804 25.908,110.466 35.263,99.144 45.355,86.71 49.664,72.124 48.187,55.387 49.54,39.262 45.418,24.924 35.817,12.369 26.463,0.43 14.706,-6.156 0.554,-7.386 H 0.369 0.184 -44.126 Z"
             style="fill:#ffffff;fill-opacity:1;fill-rule:nonzero;stroke:#ffffff;stroke-opacity:1;stroke-width:0.99975002;stroke-miterlimit:4;stroke-dasharray:none"
             id="path34" /></g><g
           id="g36"
           transform="translate(1294.417,269.5177)"><path
             d="m 0,0 h 7.386 v -3.692 -118.162 -3.692 H 0 v 3.692 118.162 z"
             style="fill:#ffffff;fill-opacity:1;fill-rule:nonzero;stroke:#ffffff;stroke-opacity:1;stroke-width:0.99975002;stroke-miterlimit:4;stroke-dasharray:none"
             id="path38" /></g><g
           id="g40"
           transform="translate(1393.0059,143.9718)"><path
             d="m 0,0 h -7.386 v 3.692 118.162 3.692 h 5.539 l 1.109,-1.478 78.096,-108.929 0.184,106.715 v 3.692 h 7.386 v -3.692 L 84.742,3.692 V 0 H 79.204 L 78.097,1.478 0,110.406 V 3.692 Z"
             style="fill:#ffffff;fill-opacity:1;fill-rule:nonzero;stroke:#ffffff;stroke-opacity:1;stroke-width:0.99975002;stroke-miterlimit:4;stroke-dasharray:none"
             id="path42" /></g><g
           id="g44"
           transform="translate(1611.2324,210.4376)"><path
             d="M 0,0 H 55.02 V -3.693 C 54.896,-21.417 49.232,-36.557 38.033,-49.111 27.325,-60.682 14.587,-66.466 -0.184,-66.466 c -15.018,0 -27.878,5.908 -38.587,17.725 -11.326,12.184 -16.986,27.2 -16.986,45.048 0,17.724 5.66,32.74 16.986,45.048 10.709,11.817 23.569,17.725 38.587,17.725 8.369,0 16.677,-2.031 24.924,-6.093 10.584,-5.294 18.094,-12.249 22.525,-20.863 l -6.647,-3.323 c -1.971,3.938 -4.984,7.631 -9.047,11.078 -9.354,8 -19.939,11.937 -31.755,11.815 -12.678,-0.124 -23.696,-5.169 -33.048,-15.138 -10.094,-10.957 -15.14,-24.371 -15.14,-40.249 0,-14.894 4.553,-27.757 13.663,-38.586 9.476,-11.202 20.984,-16.801 34.525,-16.801 12.8,0.12 24.001,5.353 33.602,15.692 9.477,10.339 14.216,22.34 14.216,36.002 L 0,-7.386 Z"
             style="fill:#ffffff;fill-opacity:1;fill-rule:nonzero;stroke:#ffffff;stroke-opacity:1;stroke-width:0.99975002;stroke-miterlimit:4;stroke-dasharray:none"
             id="path46" /></g><g
           id="g48"
           transform="translate(1743.791,269.5177)"><path
             d="M 0,0 H 7.386 V -3.692 -118.16 h 62.773 3.692 v -7.386 H 70.159 3.693 0 v 3.692 L 0,-3.692 Z"
             style="fill:#ffffff;fill-opacity:1;fill-rule:nonzero;stroke:#ffffff;stroke-opacity:1;stroke-width:0.99975002;stroke-miterlimit:4;stroke-dasharray:none"
             id="path50" /></g><g
           id="g52"
           transform="translate(1923.2451,147.6641)"><path
             d="M 0,0 V -3.692 H -7.385 V 0 57.973 l -38.586,58.157 -3.693,5.724 h 8.862 l 1.108,-1.663 36.003,-54.464 35.262,54.464 1.108,1.663 h 8.863 L 37.85,116.13 0,57.973 Z"
             style="fill:#ffffff;fill-opacity:1;fill-rule:nonzero;stroke:#ffffff;stroke-opacity:1;stroke-width:0.99975002;stroke-miterlimit:4;stroke-dasharray:none"
             id="path54" /></g><g
           id="g56"
           transform="translate(255.7402,225.2384)"><path
             d="m 0,0 c 8.267,0 24.872,-5.447 35.309,-45.328 2.585,-9.881 7.761,-16.885 15.383,-20.819 10.95,-5.652 24.39,-3.557 33.452,5.209 10.312,9.978 10.872,30.042 10.209,46.405 -0.782,19.271 -6.893,32.238 -18.167,38.54 -20.015,11.185 -44.857,10.3 -68.88,9.436 -7.195,-0.257 -13.993,-0.5 -20.662,-0.429 -31.225,0.332 -59.867,2.089 -87.563,5.37 -27.774,3.291 -57.324,7.768 -85.23,18.161 l -0.452,0.168 c -8.003,2.978 -20.659,7.688 -28.041,15.448 V 3.059 c 0.788,-1.735 4.143,-8.197 11.096,-10.144 7.176,-2.011 16.154,1.117 26.688,9.298 6.796,5.278 11.874,6.987 15.98,5.375 6.111,-2.398 7.553,-11.168 9.222,-21.324 2.443,-14.867 5.212,-31.716 21.518,-33.528 21.551,-2.408 33.638,17.853 43.362,34.12 6.32,10.574 11.312,18.926 18.047,19.728 9.045,1.083 12.614,-8.133 16.069,-17.039 4.105,-10.589 7.35,-17.5 14.7,-17.242 9.696,0.352 15.466,8.038 21.046,15.47 4.189,5.581 8.146,10.852 13.59,11.916 C -2.482,-0.146 -1.352,0 0,0 m 63.682,-75.181 c -5.359,0 -10.734,1.245 -15.689,3.803 -9.168,4.733 -15.352,12.996 -18.379,24.561 C 18.77,-5.375 2.53,-5.162 -2.195,-6.086 c -3.224,-0.63 -6.521,-5.023 -10.013,-9.674 -5.807,-7.736 -13.035,-17.364 -25.538,-17.819 -12.067,-0.431 -16.697,11.445 -20.402,20.996 -3.345,8.623 -5.669,13.835 -9.883,13.323 -3.865,-0.46 -8.862,-8.819 -13.695,-16.903 -9.462,-15.831 -22.228,-37.184 -44.886,-37.186 -1.357,0 -2.746,0.077 -4.176,0.236 -20.74,2.304 -24.17,23.18 -26.675,38.423 -1.263,7.681 -2.568,15.624 -5.563,16.799 -1.088,0.427 -3.854,0.403 -10.223,-4.545 -12.122,-9.415 -22.877,-12.878 -31.962,-10.294 -10.894,3.095 -14.964,13.713 -15.132,14.164 -0.121,0.329 -0.184,0.676 -0.184,1.027 v 84.378 c 0,0.326 0.052,0.641 0.151,0.934 2.529,17.745 36.332,29.275 64.865,35.9 40.669,9.443 94.696,14.643 152.129,14.643 57.433,0 111.46,-5.2 152.129,-14.643 29.66,-6.886 65.017,-19.075 65.017,-38.034 0,-21.693 -47.206,-34.549 -75.346,-40.282 -1.585,-0.321 -3.147,0.704 -3.471,2.296 -0.325,1.593 0.704,3.147 2.296,3.471 44.229,9.011 70.635,21.914 70.635,34.515 0,22.597 -84.89,46.792 -211.26,46.792 -126.37,0 -211.26,-24.196 -211.26,-46.792 0,-12.211 20.326,-19.776 30.093,-23.409 l 0.452,-0.169 c 27.327,-10.177 56.459,-14.585 83.87,-17.833 27.486,-3.256 55.922,-4.999 86.933,-5.329 6.539,-0.077 13.267,0.171 20.39,0.426 24.833,0.887 50.51,1.809 71.961,-10.181 12.998,-7.264 20.32,-22.286 21.176,-43.439 0.713,-17.59 -0.005,-39.269 -11.998,-50.872 -6.791,-6.571 -15.647,-10.013 -24.553,-10.014"
             style="fill:#ffffff;fill-opacity:1;fill-rule:nonzero;stroke:#ffffff;stroke-opacity:1;stroke-width:0.99975002;stroke-miterlimit:4;stroke-dasharray:none"
             id="path58" /></g><g
           id="g60"
           transform="translate(55.0508,156.3761)"><path
             d="m 0,0 c -0.582,0 -1.133,-0.043 -1.644,-0.127 -3.627,-0.596 -6.522,-2.936 -7.938,-6.422 -1.473,-3.621 -0.98,-7.641 1.318,-10.757 5.598,-7.586 16.352,-17.901 36.775,-27.534 -0.82,18.394 -6.248,29.065 -11.103,35.002 C 11.738,-2.905 4.785,0 0,0 m 13.31,-133.923 c -0.347,0 -0.701,0.062 -1.044,0.193 -1.52,0.576 -2.284,2.275 -1.708,3.794 13.105,34.551 17.776,59.949 18.046,78.524 C 5.832,-41.132 -6.431,-29.703 -13,-20.8 c -3.524,4.777 -4.285,10.933 -2.034,16.468 2.174,5.348 6.823,9.091 12.436,10.013 6.557,1.077 16.681,-2.156 24.562,-11.793 5.617,-6.869 11.996,-19.454 12.414,-41.359 3.202,-1.366 6.614,-2.711 10.25,-4.024 37.412,-13.525 88.78,-20.384 152.68,-20.384 102.418,0 154.511,17.959 180.177,33.025 25.705,15.087 30.54,30.271 31.082,32.294 v 161.061 c 0,1.626 1.318,2.943 2.943,2.943 1.626,0 2.943,-1.317 2.943,-2.943 V -6.908 c 0,-0.186 -0.017,-0.37 -0.053,-0.552 -0.142,-0.747 -3.829,-18.476 -33.024,-35.931 -38.15,-22.808 -100.079,-34.373 -184.068,-34.373 -80.187,0 -130.913,10.704 -162.976,23.883 -0.613,-19.121 -5.523,-44.537 -18.27,-78.142 -0.447,-1.176 -1.566,-1.9 -2.752,-1.9"
             style="fill:#ffffff;fill-opacity:1;fill-rule:nonzero;stroke:#ffffff;stroke-opacity:1;stroke-width:0.99975002;stroke-miterlimit:4;stroke-dasharray:none"
             id="path62" /></g><g
           id="g64"
           transform="translate(261.8389,339.1388)"><path
             d="m 0,0 c -13.264,0 -24.055,-10.791 -24.055,-24.055 0,-13.263 10.791,-24.054 24.055,-24.054 13.265,0 24.055,10.791 24.055,24.054 C 24.055,-10.791 13.265,0 0,0 m 0,-53.995 c -16.509,0 -29.94,13.432 -29.94,29.94 0,16.51 13.431,29.941 29.94,29.941 16.51,0 29.939,-13.431 29.939,-29.941 0,-16.508 -13.429,-29.94 -29.939,-29.94"
             style="fill:#ffffff;fill-opacity:1;fill-rule:nonzero;stroke:#ffffff;stroke-opacity:1;stroke-width:0.99975002;stroke-miterlimit:4;stroke-dasharray:none"
             id="path66" /></g><g
           id="g68"
           transform="translate(261.8428,312.1417)"><path
             d="m 0,0 c -0.107,0 -0.214,0.006 -0.322,0.018 -1.615,0.175 -2.782,1.626 -2.607,3.241 0.073,0.673 1.876,16.657 9.993,34.012 10.896,23.29 28.018,37.666 49.519,41.574 1.596,0.296 3.132,-0.769 3.423,-2.368 0.29,-1.599 -0.771,-3.131 -2.369,-3.422 C 10.225,64.435 2.989,3.241 2.922,2.624 2.756,1.117 1.481,0 0,0"
             style="fill:#ffffff;fill-opacity:1;fill-rule:nonzero;stroke:#ffffff;stroke-opacity:1;stroke-width:0.99975002;stroke-miterlimit:4;stroke-dasharray:none"
             id="path70" /></g></g></g></g></svg>
